<svg xmlns="http://www.w3.org/2000/svg" viewBox="0 0 1200 1400" width="1200" height="1400">
  <path fill="#ffffff" d="M 420 310 C 480 280, 720 280, 780 310 L 860 340 C 920 360, 960 420, 970 500 L 990 780 C 995 900, 940 980, 820 1020 L 380 1020 C 260 980, 205 900, 210 780 L 230 500 C 240 420, 280 360, 340 340 Z"/>
  <path fill="#ffffff" d="M 230 420 C 180 440, 130 500, 110 580 L 90 680 C 85 720, 110 760, 160 780 L 210 760 C 190 700, 200 620, 230 540 Z"/>
  <path fill="#ffffff" d="M 970 420 C 1020 440, 1070 500, 1090 580 L 1110 680 C 1115 720, 1090 760, 1040 780 L 990 760 C 1010 700, 1000 620, 970 540 Z"/>
</svg>
